<svg xmlns="http://www.w3.org/2000/svg" xmlns:xlink="http://www.w3.org/1999/xlink" contentStyleType="text/css" data-diagram-type="ACTIVITY" height="3192.1875px" preserveAspectRatio="none" style="width:1357px;height:3192px;" version="1.1" viewBox="0 0 1357 3192" width="1357.8125px" zoomAndPan="magnify"><defs><linearGradient id="g17jndxe6giai0" x1="50%" x2="50%" y1="0%" y2="100%"><stop offset="0%" stop-color="#7C9AB9"/><stop offset="100%" stop-color="#304D6D"/></linearGradient><linearGradient id="g17jndxe6giai1" x1="50%" x2="50%" y1="0%" y2="100%"><stop offset="0%" stop-color="#B8B8B8"/><stop offset="100%" stop-color="#6B6B6B"/></linearGradient></defs><g><rect fill="none" height="969.2184" rx="6.25" ry="6.25" style="stroke:#446E9B;stroke-width:1.5625;" width="629.6906" x="666.4204" y="17.1875"/><path d="M861.2019,17.1875 L861.2019,44.6625 L845.5769,60.2875 L666.4204,60.2875" fill="none" style="stroke:#446E9B;stroke-width:1.5625;"/><text fill="#446E9B" font-family="'Verdana'" font-size="18.75" lengthAdjust="spacing" textLength="163.5315" x="678.9204" y="45.4132">process_video.py</text><ellipse cx="950.2789" cy="91.5375" fill="#3399F3" rx="15.625" ry="15.625" style="stroke:#304D6D;stroke-width:1.5625;"/><rect fill="url(#g17jndxe6giai0)" height="125.5249" rx="6.25" ry="6.25" style="stroke:#304D6D;stroke-width:1.5625;" width="288.6627" x="805.9475" y="138.4125"/><text fill="#FFFFFF" font-family="'Verdana'" font-size="18.75" lengthAdjust="spacing" textLength="197.3511" x="823.135" y="174.4507">Parse CLI arguments</text><text fill="#FFFFFF" font-family="'Verdana'" font-size="18.75" lengthAdjust="spacing" textLength="8.5144" x="836.3186" y="197.2382">(</text><text fill="#FFFFFF" font-family="'Verdana'" font-size="18.75" lengthAdjust="spacing" text-decoration="line-through" textLength="57.2937" x="844.833" y="197.2382">video,</text><text fill="#FFFFFF" font-family="'Verdana'" font-size="18.75" lengthAdjust="spacing" textLength="162.973" x="908.7185" y="197.2382">fps, --start_time,</text><text fill="#FFFFFF" font-family="'Verdana'" font-size="18.75" lengthAdjust="spacing" textLength="234.5123" x="842.9104" y="220.0256">--max_duration/percent,</text><text fill="#FFFFFF" font-family="'Verdana'" font-size="18.75" lengthAdjust="spacing" textLength="19.7754" x="823.135" y="242.8131">&#160;&#160;&#160;</text><text fill="#FFFFFF" font-family="'Verdana'" font-size="18.75" lengthAdjust="spacing" text-decoration="line-through" textLength="31.3477" x="842.9104" y="242.8131">roi,</text><text fill="#FFFFFF" font-family="'Verdana'" font-size="18.75" lengthAdjust="spacing" textLength="188.4979" x="880.8498" y="242.8131">smooth_window,...)</text><rect fill="url(#g17jndxe6giai0)" height="57.1625" rx="6.25" ry="6.25" style="stroke:#304D6D;stroke-width:1.5625;" width="315.1764" x="792.6907" y="295.1874"/><text fill="#FFFFFF" font-family="'Verdana'" font-size="18.75" lengthAdjust="spacing" textLength="280.8014" x="809.8782" y="331.2256">Open video &amp; read first frame</text><polygon fill="url(#g17jndxe6giai1)" points="877.1435,383.5999,1023.4142,383.5999,1042.1642,402.8061,1023.4142,422.0123,877.1435,422.0123,858.3935,402.8061,877.1435,383.5999" style="stroke:#6B6B6B;stroke-width:1.5625;"/><text fill="#FFFFFF" font-family="'Verdana'" font-size="18.75" lengthAdjust="spacing" textLength="130.6458" x="884.956" y="410.2631">ROI supplied?</text><text fill="#FFFFFF" font-family="'Verdana'" font-size="18.75" lengthAdjust="spacing" textLength="32.0343" x="818.5467" y="391.0568">yes</text><rect fill="url(#g17jndxe6giai0)" height="57.1625" rx="6.25" ry="6.25" style="stroke:#304D6D;stroke-width:1.5625;" width="199.7467" x="697.6704" y="437.6373"/><text fill="#FFFFFF" font-family="'Verdana'" font-size="18.75" lengthAdjust="spacing" textLength="165.3717" x="714.8579" y="473.6755">Use provided ROI</text><rect fill="url(#g17jndxe6giai0)" height="57.1625" rx="6.25" ry="6.25" style="stroke:#304D6D;stroke-width:1.5625;" width="348.6938" x="928.6671" y="437.6373"/><text fill="#FFFFFF" font-family="'Verdana'" font-size="18.75" lengthAdjust="spacing" textLength="314.3188" x="945.8546" y="473.6755">User drags ROI via cv2.selectROI</text><polygon fill="url(#g17jndxe6giai1)" points="950.2789,510.4248,969.0289,529.1748,950.2789,547.9248,931.5289,529.1748,950.2789,510.4248" style="stroke:#6B6B6B;stroke-width:1.5625;"/><rect fill="url(#g17jndxe6giai0)" height="57.1625" rx="6.25" ry="6.25" style="stroke:#304D6D;stroke-width:1.5625;" width="405.722" x="747.4178" y="579.1748"/><text fill="#FFFFFF" font-family="'Verdana'" font-size="18.75" lengthAdjust="spacing" textLength="371.347" x="764.6053" y="615.213">Derive duration limit &amp; start timestamp</text><rect fill="url(#g17jndxe6giai0)" height="57.1625" rx="6.25" ry="6.25" style="stroke:#304D6D;stroke-width:1.5625;" width="258.3038" x="821.1269" y="667.5873"/><text fill="#FFFFFF" font-family="'Verdana'" font-size="18.75" lengthAdjust="spacing" textLength="223.9288" x="838.3144" y="703.6255">Create frames directory</text><rect fill="url(#g17jndxe6giai0)" height="57.1625" rx="6.25" ry="6.25" style="stroke:#304D6D;stroke-width:1.5625;" width="335.968" x="782.2948" y="841.7435"/><text fill="#FFFFFF" font-family="'Verdana'" font-size="18.75" lengthAdjust="spacing" textLength="301.593" x="799.4823" y="877.7817">Init VideoWriter at sampled FPS</text><polygon fill="url(#g17jndxe6giai1)" points="866.9125,755.9998,1033.6452,755.9998,1052.3952,775.206,1033.6452,794.4122,866.9125,794.4122,848.1625,775.206,866.9125,755.9998" style="stroke:#6B6B6B;stroke-width:1.5625;"/><text fill="#FFFFFF" font-family="'Verdana'" font-size="18.75" lengthAdjust="spacing" textLength="32.0343" x="964.3414" y="821.0754">yes</text><text fill="#FFFFFF" font-family="'Verdana'" font-size="18.75" lengthAdjust="spacing" textLength="151.1078" x="874.725" y="782.663">annotated MP4?</text><polygon fill="url(#g17jndxe6giai1)" points="950.2789,930.1559,969.0289,948.9059,950.2789,967.6559,931.5289,948.9059,950.2789,930.1559" style="stroke:#6B6B6B;stroke-width:1.5625;"/><rect fill="url(#g17jndxe6giai0)" height="57.1625" rx="6.25" ry="6.25" style="stroke:#304D6D;stroke-width:1.5625;" width="337.149" x="781.7043" y="1116.3254"/><text fill="#FFFFFF" font-family="'Verdana'" font-size="18.75" lengthAdjust="spacing" textLength="302.774" x="798.8918" y="1152.3636">Seek via CAP_PROP_POS_MSEC</text><polygon fill="url(#g17jndxe6giai1)" points="866.1068,1204.7379,1034.4509,1204.7379,1053.2009,1223.9441,1034.4509,1243.1503,866.1068,1243.1503,847.3568,1223.9441,866.1068,1204.7379" style="stroke:#6B6B6B;stroke-width:1.5625;"/><text fill="#FFFFFF" font-family="'Verdana'" font-size="18.75" lengthAdjust="spacing" textLength="152.7191" x="873.9193" y="1231.4011">Frame read OK?</text><text fill="#FFFFFF" font-family="'Verdana'" font-size="18.75" lengthAdjust="spacing" textLength="32.0343" x="807.51" y="1212.1948">yes</text><text fill="#FFFFFF" font-family="'Verdana'" font-size="18.75" lengthAdjust="spacing" textLength="23.2452" x="1061.0134" y="1212.1948">no</text><rect fill="url(#g17jndxe6giai0)" height="57.1625" rx="6.25" ry="6.25" style="stroke:#304D6D;stroke-width:1.5625;" width="283.9386" x="472.8981" y="1258.7753"/><text fill="#FFFFFF" font-family="'Verdana'" font-size="18.75" lengthAdjust="spacing" textLength="249.5636" x="490.0856" y="1294.8135">Crop base ROI from frame</text><rect fill="url(#g17jndxe6giai0)" height="57.1625" rx="6.25" ry="6.25" style="stroke:#304D6D;stroke-width:1.5625;" width="662.2986" x="283.7181" y="1347.1878"/><text fill="#FFFFFF" font-family="'Verdana'" font-size="18.75" lengthAdjust="spacing" textLength="627.9236" x="300.9056" y="1383.226">Focus ROI on blue screen via HSV mask -&gt; tightened ROI + offset</text><rect fill="url(#g17jndxe6giai0)" height="57.1625" rx="6.25" ry="6.25" style="stroke:#304D6D;stroke-width:1.5625;" width="594.1376" x="317.7986" y="1435.6003"/><text fill="#FFFFFF" font-family="'Verdana'" font-size="18.75" lengthAdjust="spacing" textLength="559.7626" x="334.9861" y="1471.6385">Extract upper-middle band (25%-65% height) as digits_roi</text><rect fill="none" height="612.603" rx="6.25" ry="6.25" style="stroke:#446E9B;stroke-width:1.5625;" width="1162.2528" x="68.75" y="1508.3878"/><path d="M189.8315,1508.3878 L189.8315,1535.8627 L174.2065,1551.4877 L68.75,1551.4877" fill="none" style="stroke:#446E9B;stroke-width:1.5625;"/><text fill="#446E9B" font-family="'Verdana'" font-size="18.75" lengthAdjust="spacing" textLength="89.8315" x="81.25" y="1536.6135">run_ocr()</text><rect fill="url(#g17jndxe6giai0)" height="57.1625" rx="6.25" ry="6.25" style="stroke:#304D6D;stroke-width:1.5625;" width="249.9542" x="489.8903" y="1578.0502"/><text fill="#FFFFFF" font-family="'Verdana'" font-size="18.75" lengthAdjust="spacing" textLength="215.5792" x="507.0778" y="1614.0884">Try &#176;C anchor strategy</text><polygon fill="url(#g17jndxe6giai1)" points="481.6277,1666.4627,748.1071,1666.4627,766.8571,1685.6689,748.1071,1704.8752,481.6277,1704.8752,462.8777,1685.6689,481.6277,1666.4627" style="stroke:#6B6B6B;stroke-width:1.5625;"/><text fill="#FFFFFF" font-family="'Verdana'" font-size="18.75" lengthAdjust="spacing" textLength="250.8545" x="489.4402" y="1693.1259">Anchor + main line found?</text><text fill="#FFFFFF" font-family="'Verdana'" font-size="18.75" lengthAdjust="spacing" textLength="32.0343" x="423.0309" y="1673.9197">yes</text><text fill="#FFFFFF" font-family="'Verdana'" font-size="18.75" lengthAdjust="spacing" textLength="23.2452" x="774.6696" y="1673.9197">no</text><rect fill="url(#g17jndxe6giai0)" height="57.1625" rx="6.25" ry="6.25" style="stroke:#304D6D;stroke-width:1.5625;" width="482.9834" x="87.5" y="1720.5002"/><text fill="#FFFFFF" font-family="'Verdana'" font-size="18.75" lengthAdjust="spacing" textLength="448.6084" x="104.6875" y="1756.5384">OCR single line (psm7, whitelist 0123456789.,)</text><rect fill="url(#g17jndxe6giai0)" height="57.1625" rx="6.25" ry="6.25" style="stroke:#304D6D;stroke-width:1.5625;" width="375.7477" x="712.8693" y="1720.5002"/><text fill="#FFFFFF" font-family="'Verdana'" font-size="18.75" lengthAdjust="spacing" textLength="341.3727" x="730.0568" y="1756.5384">Resize 2x &amp; build dual Otsu variants</text><rect fill="url(#g17jndxe6giai0)" height="57.1625" rx="6.25" ry="6.25" style="stroke:#304D6D;stroke-width:1.5625;" width="542.4652" x="629.5105" y="1808.9127"/><text fill="#FFFFFF" font-family="'Verdana'" font-size="18.75" lengthAdjust="spacing" textLength="508.0902" x="646.698" y="1844.9509">Run Tesseract (psm6 whitelist) and optional EasyOCR</text><rect fill="url(#g17jndxe6giai0)" height="57.1625" rx="6.25" ry="6.25" style="stroke:#304D6D;stroke-width:1.5625;" width="598.0194" x="601.7334" y="1897.3251"/><text fill="#FFFFFF" font-family="'Verdana'" font-size="18.75" lengthAdjust="spacing" textLength="563.6444" x="618.9209" y="1933.3633">Score boxes (decimal priority, tall glyphs, near unit, 0-120)</text><polygon fill="url(#g17jndxe6giai1)" points="614.8674,1976.3283,633.6174,1995.0783,614.8674,2013.8283,596.1174,1995.0783,614.8674,1976.3283" style="stroke:#6B6B6B;stroke-width:1.5625;"/><rect fill="url(#g17jndxe6giai0)" height="57.1625" rx="6.25" ry="6.25" style="stroke:#304D6D;stroke-width:1.5625;" width="367.3889" x="431.1729" y="2045.0783"/><text fill="#FFFFFF" font-family="'Verdana'" font-size="18.75" lengthAdjust="spacing" textLength="333.0139" x="448.3604" y="2081.1165">Return value + confidence + boxes</text><rect fill="url(#g17jndxe6giai0)" height="57.1625" rx="6.25" ry="6.25" style="stroke:#304D6D;stroke-width:1.5625;" width="578.1158" x="325.8095" y="2152.2408"/><text fill="#FFFFFF" font-family="'Verdana'" font-size="18.75" lengthAdjust="spacing" textLength="543.7408" x="342.997" y="2188.279">Median-smooth numeric value (optional 3-frame window)</text><rect fill="url(#g17jndxe6giai0)" height="57.1625" rx="6.25" ry="6.25" style="stroke:#304D6D;stroke-width:1.5625;" width="450.0793" x="389.8277" y="2240.6532"/><text fill="#FFFFFF" font-family="'Verdana'" font-size="18.75" lengthAdjust="spacing" textLength="415.7043" x="407.0152" y="2276.6914">Save original frame as JPG (HH-MM-SS.jpg)</text><rect fill="url(#g17jndxe6giai0)" height="57.1625" rx="6.25" ry="6.25" style="stroke:#304D6D;stroke-width:1.5625;" width="489.859" x="369.9379" y="2329.0657"/><text fill="#FFFFFF" font-family="'Verdana'" font-size="18.75" lengthAdjust="spacing" textLength="455.484" x="387.1254" y="2365.1039">Append CSV row {time, value, conf, frame_file}</text><rect fill="url(#g17jndxe6giai0)" height="57.1625" rx="6.25" ry="6.25" style="stroke:#304D6D;stroke-width:1.5625;" width="479.0649" x="375.3349" y="2503.2219"/><text fill="#FFFFFF" font-family="'Verdana'" font-size="18.75" lengthAdjust="spacing" textLength="444.6899" x="392.5224" y="2539.2601">Draw digit ROI + bounding boxes &amp; value label</text><rect fill="url(#g17jndxe6giai0)" height="57.1625" rx="6.25" ry="6.25" style="stroke:#304D6D;stroke-width:1.5625;" width="330.7495" x="449.4926" y="2611.3937"/><text fill="#FFFFFF" font-family="'Verdana'" font-size="18.75" lengthAdjust="spacing" textLength="296.3745" x="466.6801" y="2647.4319">Write annotated frame to video</text><polygon fill="url(#g17jndxe6giai1)" points="531.501,2417.4782,698.2338,2417.4782,716.9838,2436.6844,698.2338,2455.8907,531.501,2455.8907,512.751,2436.6844,531.501,2417.4782" style="stroke:#6B6B6B;stroke-width:1.5625;"/><text fill="#FFFFFF" font-family="'Verdana'" font-size="18.75" lengthAdjust="spacing" textLength="32.0343" x="628.9299" y="2482.5539">yes</text><text fill="#FFFFFF" font-family="'Verdana'" font-size="18.75" lengthAdjust="spacing" textLength="151.1078" x="539.3135" y="2444.1414">annotated MP4?</text><polygon fill="url(#g17jndxe6giai1)" points="614.8674,2699.8062,633.6174,2718.5562,614.8674,2737.3062,596.1174,2718.5562,614.8674,2699.8062" style="stroke:#6B6B6B;stroke-width:1.5625;"/><rect fill="url(#g17jndxe6giai0)" height="57.1625" rx="6.25" ry="6.25" style="stroke:#304D6D;stroke-width:1.5625;" width="375.7019" x="762.4279" y="2768.5562"/><text fill="#FFFFFF" font-family="'Verdana'" font-size="18.75" lengthAdjust="spacing" textLength="341.3269" x="779.6154" y="2804.5944">Advance timestamp by 1000/fps ms</text><polygon fill="url(#g17jndxe6giai1)" points="800.3582,1017.6559,1100.1995,1017.6559,1118.9495,1036.8622,1100.1995,1056.0684,800.3582,1056.0684,781.6082,1036.8622,800.3582,1017.6559" style="stroke:#6B6B6B;stroke-width:1.5625;"/><text fill="#FFFFFF" font-family="'Verdana'" font-size="18.75" lengthAdjust="spacing" textLength="32.0343" x="964.3414" y="1082.7316">yes</text><text fill="#FFFFFF" font-family="'Verdana'" font-size="18.75" lengthAdjust="spacing" textLength="284.2163" x="808.1707" y="1044.3192">More timestamps within limit?</text><text fill="#FFFFFF" font-family="'Verdana'" font-size="18.75" lengthAdjust="spacing" textLength="23.2452" x="750.5505" y="1025.1129">no</text><rect fill="none" height="299.6124" rx="6.25" ry="6.25" style="stroke:#446E9B;stroke-width:1.5625;" width="353.4485" x="773.5546" y="2875.7187"/><path d="M968.3361,2875.7187 L968.3361,2903.1937 L952.7111,2918.8187 L773.5546,2918.8187" fill="none" style="stroke:#446E9B;stroke-width:1.5625;"/><text fill="#446E9B" font-family="'Verdana'" font-size="18.75" lengthAdjust="spacing" textLength="163.5315" x="786.0546" y="2903.9444">process_video.py</text><rect fill="url(#g17jndxe6giai0)" height="57.1625" rx="6.25" ry="6.25" style="stroke:#304D6D;stroke-width:1.5625;" width="322.1985" x="789.1796" y="2945.3812"/><text fill="#FFFFFF" font-family="'Verdana'" font-size="18.75" lengthAdjust="spacing" textLength="287.8235" x="806.3671" y="2981.4194">Release VideoCapture &amp; writer</text><rect fill="url(#g17jndxe6giai0)" height="57.1625" rx="6.25" ry="6.25" style="stroke:#304D6D;stroke-width:1.5625;" width="274.7009" x="812.9284" y="3033.7936"/><text fill="#FFFFFF" font-family="'Verdana'" font-size="18.75" lengthAdjust="spacing" textLength="240.3259" x="830.1159" y="3069.8318">Write CSV header + rows</text><ellipse cx="950.2789" cy="3139.3936" fill="none" rx="17.1875" ry="17.1875" style="stroke:#304D6D;stroke-width:1.5625;"/><ellipse cx="950.2789" cy="3139.3936" fill="none" rx="9.375" ry="9.375" style="stroke:#304D6D;stroke-width:1.5625;"/><line style="stroke:#446E9B;stroke-width:4.6875;" x1="950.2789" x2="950.2789" y1="107.1625" y2="138.4125"/><polygon fill="#446E9B" points="944.0289,122.7875,950.2789,138.4125,956.5289,122.7875,950.2789,129.0375" style="stroke:#446E9B;stroke-width:1.5625;"/><line style="stroke:#446E9B;stroke-width:4.6875;" x1="950.2789" x2="950.2789" y1="263.9374" y2="295.1874"/><polygon fill="#446E9B" points="944.0289,279.5624,950.2789,295.1874,956.5289,279.5624,950.2789,285.8124" style="stroke:#446E9B;stroke-width:1.5625;"/><line style="stroke:#446E9B;stroke-width:4.6875;" x1="858.3935" x2="797.5437" y1="402.8061" y2="402.8061"/><line style="stroke:#446E9B;stroke-width:4.6875;" x1="797.5437" x2="797.5437" y1="402.8061" y2="437.6373"/><polygon fill="#446E9B" points="791.2937,422.0123,797.5437,437.6373,803.7937,422.0123,797.5437,428.2623" style="stroke:#446E9B;stroke-width:1.5625;"/><line style="stroke:#446E9B;stroke-width:4.6875;" x1="1042.1642" x2="1103.014" y1="402.8061" y2="402.8061"/><line style="stroke:#446E9B;stroke-width:4.6875;" x1="1103.014" x2="1103.014" y1="402.8061" y2="437.6373"/><polygon fill="#446E9B" points="1096.764,422.0123,1103.014,437.6373,1109.264,422.0123,1103.014,428.2623" style="stroke:#446E9B;stroke-width:1.5625;"/><line style="stroke:#446E9B;stroke-width:4.6875;" x1="797.5437" x2="797.5437" y1="494.7998" y2="529.1748"/><line style="stroke:#446E9B;stroke-width:4.6875;" x1="797.5437" x2="931.5289" y1="529.1748" y2="529.1748"/><polygon fill="#446E9B" points="915.9039,522.9248,931.5289,529.1748,915.9039,535.4248,922.1539,529.1748" style="stroke:#446E9B;stroke-width:1.5625;"/><line style="stroke:#446E9B;stroke-width:4.6875;" x1="1103.014" x2="1103.014" y1="494.7998" y2="529.1748"/><line style="stroke:#446E9B;stroke-width:4.6875;" x1="1103.014" x2="969.0289" y1="529.1748" y2="529.1748"/><polygon fill="#446E9B" points="984.6539,522.9248,969.0289,529.1748,984.6539,535.4248,978.4039,529.1748" style="stroke:#446E9B;stroke-width:1.5625;"/><line style="stroke:#446E9B;stroke-width:4.6875;" x1="950.2789" x2="950.2789" y1="352.3499" y2="383.5999"/><polygon fill="#446E9B" points="944.0289,367.9749,950.2789,383.5999,956.5289,367.9749,950.2789,374.2249" style="stroke:#446E9B;stroke-width:1.5625;"/><line style="stroke:#446E9B;stroke-width:4.6875;" x1="950.2789" x2="950.2789" y1="547.9248" y2="579.1748"/><polygon fill="#446E9B" points="944.0289,563.5498,950.2789,579.1748,956.5289,563.5498,950.2789,569.7998" style="stroke:#446E9B;stroke-width:1.5625;"/><line style="stroke:#446E9B;stroke-width:4.6875;" x1="950.2789" x2="950.2789" y1="636.3373" y2="667.5873"/><polygon fill="#446E9B" points="944.0289,651.9623,950.2789,667.5873,956.5289,651.9623,950.2789,658.2123" style="stroke:#446E9B;stroke-width:1.5625;"/><line style="stroke:#446E9B;stroke-width:4.6875;" x1="950.2789" x2="950.2789" y1="794.4122" y2="841.7435"/><polygon fill="#446E9B" points="944.0289,826.1185,950.2789,841.7435,956.5289,826.1185,950.2789,832.3685" style="stroke:#446E9B;stroke-width:1.5625;"/><line style="stroke:#446E9B;stroke-width:4.6875;" x1="1052.3952" x2="1133.8879" y1="775.206" y2="775.206"/><polygon fill="#446E9B" points="1127.6379,862.2841,1133.8879,877.9091,1140.1379,862.2841,1133.8879,868.5341" style="stroke:#446E9B;stroke-width:4.6875;"/><line style="stroke:#446E9B;stroke-width:4.6875;" x1="1133.8879" x2="1133.8879" y1="775.206" y2="948.9059"/><line style="stroke:#446E9B;stroke-width:4.6875;" x1="1133.8879" x2="969.0289" y1="948.9059" y2="948.9059"/><polygon fill="#446E9B" points="984.6539,942.6559,969.0289,948.9059,984.6539,955.1559,978.4039,948.9059" style="stroke:#446E9B;stroke-width:1.5625;"/><line style="stroke:#446E9B;stroke-width:4.6875;" x1="950.2789" x2="950.2789" y1="898.9059" y2="930.1559"/><polygon fill="#446E9B" points="944.0289,914.5309,950.2789,930.1559,956.5289,914.5309,950.2789,920.7809" style="stroke:#446E9B;stroke-width:1.5625;"/><line style="stroke:#446E9B;stroke-width:4.6875;" x1="950.2789" x2="950.2789" y1="724.7498" y2="755.9998"/><polygon fill="#446E9B" points="944.0289,740.3748,950.2789,755.9998,956.5289,740.3748,950.2789,746.6248" style="stroke:#446E9B;stroke-width:1.5625;"/><line style="stroke:#446E9B;stroke-width:4.6875;" x1="614.8674" x2="614.8674" y1="1315.9378" y2="1347.1878"/><polygon fill="#446E9B" points="608.6174,1331.5628,614.8674,1347.1878,621.1174,1331.5628,614.8674,1337.8128" style="stroke:#446E9B;stroke-width:1.5625;"/><line style="stroke:#446E9B;stroke-width:4.6875;" x1="614.8674" x2="614.8674" y1="1404.3503" y2="1435.6003"/><polygon fill="#446E9B" points="608.6174,1419.9753,614.8674,1435.6003,621.1174,1419.9753,614.8674,1426.2253" style="stroke:#446E9B;stroke-width:1.5625;"/><line style="stroke:#446E9B;stroke-width:4.6875;" x1="900.7431" x2="900.7431" y1="1777.6627" y2="1808.9127"/><polygon fill="#446E9B" points="894.4931,1793.2877,900.7431,1808.9127,906.9931,1793.2877,900.7431,1799.5377" style="stroke:#446E9B;stroke-width:1.5625;"/><line style="stroke:#446E9B;stroke-width:4.6875;" x1="900.7431" x2="900.7431" y1="1866.0751" y2="1897.3251"/><polygon fill="#446E9B" points="894.4931,1881.7001,900.7431,1897.3251,906.9931,1881.7001,900.7431,1887.9501" style="stroke:#446E9B;stroke-width:1.5625;"/><line style="stroke:#446E9B;stroke-width:4.6875;" x1="462.8777" x2="328.9917" y1="1685.6689" y2="1685.6689"/><line style="stroke:#446E9B;stroke-width:4.6875;" x1="328.9917" x2="328.9917" y1="1685.6689" y2="1720.5002"/><polygon fill="#446E9B" points="322.7417,1704.8752,328.9917,1720.5002,335.2417,1704.8752,328.9917,1711.1252" style="stroke:#446E9B;stroke-width:1.5625;"/><line style="stroke:#446E9B;stroke-width:4.6875;" x1="766.8571" x2="900.7431" y1="1685.6689" y2="1685.6689"/><line style="stroke:#446E9B;stroke-width:4.6875;" x1="900.7431" x2="900.7431" y1="1685.6689" y2="1720.5002"/><polygon fill="#446E9B" points="894.4931,1704.8752,900.7431,1720.5002,906.9931,1704.8752,900.7431,1711.1252" style="stroke:#446E9B;stroke-width:1.5625;"/><line style="stroke:#446E9B;stroke-width:4.6875;" x1="328.9917" x2="328.9917" y1="1777.6627" y2="1995.0783"/><line style="stroke:#446E9B;stroke-width:4.6875;" x1="328.9917" x2="596.1174" y1="1995.0783" y2="1995.0783"/><polygon fill="#446E9B" points="580.4924,1988.8283,596.1174,1995.0783,580.4924,2001.3283,586.7424,1995.0783" style="stroke:#446E9B;stroke-width:1.5625;"/><line style="stroke:#446E9B;stroke-width:4.6875;" x1="900.7431" x2="900.7431" y1="1954.4876" y2="1995.0783"/><line style="stroke:#446E9B;stroke-width:4.6875;" x1="900.7431" x2="633.6174" y1="1995.0783" y2="1995.0783"/><polygon fill="#446E9B" points="649.2424,1988.8283,633.6174,1995.0783,649.2424,2001.3283,642.9924,1995.0783" style="stroke:#446E9B;stroke-width:1.5625;"/><line style="stroke:#446E9B;stroke-width:4.6875;" x1="614.8674" x2="614.8674" y1="1635.2127" y2="1666.4627"/><polygon fill="#446E9B" points="608.6174,1650.8377,614.8674,1666.4627,621.1174,1650.8377,614.8674,1657.0877" style="stroke:#446E9B;stroke-width:1.5625;"/><line style="stroke:#446E9B;stroke-width:4.6875;" x1="614.8674" x2="614.8674" y1="2013.8283" y2="2045.0783"/><polygon fill="#446E9B" points="608.6174,2029.4533,614.8674,2045.0783,621.1174,2029.4533,614.8674,2035.7033" style="stroke:#446E9B;stroke-width:1.5625;"/><line style="stroke:#446E9B;stroke-width:4.6875;" x1="614.8674" x2="614.8674" y1="1492.7628" y2="1578.0502"/><polygon fill="#446E9B" points="608.6174,1562.4252,614.8674,1578.0502,621.1174,1562.4252,614.8674,1568.6752" style="stroke:#446E9B;stroke-width:1.5625;"/><line style="stroke:#446E9B;stroke-width:4.6875;" x1="614.8674" x2="614.8674" y1="2102.2408" y2="2152.2408"/><polygon fill="#446E9B" points="608.6174,2136.6158,614.8674,2152.2408,621.1174,2136.6158,614.8674,2142.8658" style="stroke:#446E9B;stroke-width:1.5625;"/><line style="stroke:#446E9B;stroke-width:4.6875;" x1="614.8674" x2="614.8674" y1="2209.4032" y2="2240.6532"/><polygon fill="#446E9B" points="608.6174,2225.0282,614.8674,2240.6532,621.1174,2225.0282,614.8674,2231.2782" style="stroke:#446E9B;stroke-width:1.5625;"/><line style="stroke:#446E9B;stroke-width:4.6875;" x1="614.8674" x2="614.8674" y1="2297.8157" y2="2329.0657"/><polygon fill="#446E9B" points="608.6174,2313.4407,614.8674,2329.0657,621.1174,2313.4407,614.8674,2319.6907" style="stroke:#446E9B;stroke-width:1.5625;"/><line style="stroke:#446E9B;stroke-width:4.6875;" x1="614.8674" x2="614.8674" y1="2560.3844" y2="2611.3937"/><polygon fill="#446E9B" points="608.6174,2595.7687,614.8674,2611.3937,621.1174,2595.7687,614.8674,2602.0187" style="stroke:#446E9B;stroke-width:1.5625;"/><line style="stroke:#446E9B;stroke-width:4.6875;" x1="614.8674" x2="614.8674" y1="2455.8907" y2="2503.2219"/><polygon fill="#446E9B" points="608.6174,2487.5969,614.8674,2503.2219,621.1174,2487.5969,614.8674,2493.8469" style="stroke:#446E9B;stroke-width:1.5625;"/><line style="stroke:#446E9B;stroke-width:4.6875;" x1="716.9838" x2="870.0249" y1="2436.6844" y2="2436.6844"/><polygon fill="#446E9B" points="863.7749,2576.0094,870.0249,2591.6344,876.2749,2576.0094,870.0249,2582.2594" style="stroke:#446E9B;stroke-width:4.6875;"/><line style="stroke:#446E9B;stroke-width:4.6875;" x1="870.0249" x2="870.0249" y1="2436.6844" y2="2718.5562"/><line style="stroke:#446E9B;stroke-width:4.6875;" x1="870.0249" x2="633.6174" y1="2718.5562" y2="2718.5562"/><polygon fill="#446E9B" points="649.2424,2712.3062,633.6174,2718.5562,649.2424,2724.8062,642.9924,2718.5562" style="stroke:#446E9B;stroke-width:1.5625;"/><line style="stroke:#446E9B;stroke-width:4.6875;" x1="614.8674" x2="614.8674" y1="2668.5562" y2="2699.8062"/><polygon fill="#446E9B" points="608.6174,2684.1812,614.8674,2699.8062,621.1174,2684.1812,614.8674,2690.4312" style="stroke:#446E9B;stroke-width:1.5625;"/><line style="stroke:#446E9B;stroke-width:4.6875;" x1="614.8674" x2="614.8674" y1="2386.2282" y2="2417.4782"/><polygon fill="#446E9B" points="608.6174,2401.8532,614.8674,2417.4782,621.1174,2401.8532,614.8674,2408.1032" style="stroke:#446E9B;stroke-width:1.5625;"/><line style="stroke:#446E9B;stroke-width:4.6875;" x1="847.3568" x2="614.8674" y1="1223.9441" y2="1223.9441"/><line style="stroke:#446E9B;stroke-width:4.6875;" x1="614.8674" x2="614.8674" y1="1223.9441" y2="1258.7753"/><polygon fill="#446E9B" points="608.6174,1243.1503,614.8674,1258.7753,621.1174,1243.1503,614.8674,1249.4003" style="stroke:#446E9B;stroke-width:1.5625;"/><line style="stroke:#446E9B;stroke-width:4.6875;" x1="1053.2009" x2="1285.1734" y1="1223.9441" y2="1223.9441"/><line style="stroke:#446E9B;stroke-width:4.6875;" x1="1285.1734" x2="1285.1734" y1="1223.9441" y2="1258.7753"/><line style="stroke:#446E9B;stroke-width:4.6875;" x1="1285.1734" x2="37.5" y1="1258.7753" y2="1258.7753"/><polygon fill="#446E9B" points="53.125,1252.5253,37.5,1258.7753,53.125,1265.0253,46.875,1258.7753" style="stroke:#446E9B;stroke-width:1.5625;"/><line style="stroke:#446E9B;stroke-width:4.6875;" x1="614.8674" x2="614.8674" y1="2737.3062" y2="2745.1187"/><line style="stroke:#446E9B;stroke-width:4.6875;" x1="614.8674" x2="950.2789" y1="2745.1187" y2="2745.1187"/><line style="stroke:#446E9B;stroke-width:4.6875;" x1="950.2789" x2="950.2789" y1="2745.1187" y2="2768.5562"/><polygon fill="#446E9B" points="944.0289,2752.9312,950.2789,2768.5562,956.5289,2752.9312,950.2789,2759.1812" style="stroke:#446E9B;stroke-width:1.5625;"/><line style="stroke:#446E9B;stroke-width:4.6875;" x1="950.2789" x2="950.2789" y1="1173.4879" y2="1204.7379"/><polygon fill="#446E9B" points="944.0289,1189.1129,950.2789,1204.7379,956.5289,1189.1129,950.2789,1195.3629" style="stroke:#446E9B;stroke-width:1.5625;"/><line style="stroke:#446E9B;stroke-width:4.6875;" x1="950.2789" x2="950.2789" y1="1056.0684" y2="1116.3254"/><polygon fill="#446E9B" points="944.0289,1100.7004,950.2789,1116.3254,956.5289,1100.7004,950.2789,1106.9504" style="stroke:#446E9B;stroke-width:1.5625;"/><line style="stroke:#446E9B;stroke-width:4.6875;" x1="950.2789" x2="950.2789" y1="2825.7187" y2="2841.3437"/><line style="stroke:#446E9B;stroke-width:4.6875;" x1="950.2789" x2="1317.9859" y1="2841.3437" y2="2841.3437"/><polygon fill="#446E9B" points="1311.7359,1959.1408,1317.9859,1943.5158,1324.2359,1959.1408,1317.9859,1952.8908" style="stroke:#446E9B;stroke-width:4.6875;"/><line style="stroke:#446E9B;stroke-width:4.6875;" x1="1317.9859" x2="1317.9859" y1="1036.8622" y2="2841.3437"/><line style="stroke:#446E9B;stroke-width:4.6875;" x1="1317.9859" x2="1118.9495" y1="1036.8622" y2="1036.8622"/><polygon fill="#446E9B" points="1134.5745,1030.6122,1118.9495,1036.8622,1134.5745,1043.1122,1128.3245,1036.8622" style="stroke:#446E9B;stroke-width:1.5625;"/><line style="stroke:#446E9B;stroke-width:4.6875;" x1="781.6082" x2="37.5" y1="1036.8622" y2="1036.8622"/><polygon fill="#446E9B" points="31.25,1945.0783,37.5,1960.7033,43.75,1945.0783,37.5,1951.3283" style="stroke:#446E9B;stroke-width:4.6875;"/><line style="stroke:#446E9B;stroke-width:4.6875;" x1="37.5" x2="37.5" y1="1036.8622" y2="2867.9062"/><line style="stroke:#446E9B;stroke-width:4.6875;" x1="37.5" x2="950.2789" y1="2867.9062" y2="2867.9062"/><line style="stroke:#446E9B;stroke-width:4.6875;" x1="950.2789" x2="950.2789" y1="2867.9062" y2="2945.3812"/><polygon fill="#446E9B" points="944.0289,2929.7562,950.2789,2945.3812,956.5289,2929.7562,950.2789,2936.0062" style="stroke:#446E9B;stroke-width:1.5625;"/><line style="stroke:#446E9B;stroke-width:4.6875;" x1="950.2789" x2="950.2789" y1="967.6559" y2="1017.6559"/><polygon fill="#446E9B" points="944.0289,1002.0309,950.2789,1017.6559,956.5289,1002.0309,950.2789,1008.2809" style="stroke:#446E9B;stroke-width:1.5625;"/><line style="stroke:#446E9B;stroke-width:4.6875;" x1="950.2789" x2="950.2789" y1="3002.5436" y2="3033.7936"/><polygon fill="#446E9B" points="944.0289,3018.1686,950.2789,3033.7936,956.5289,3018.1686,950.2789,3024.4186" style="stroke:#446E9B;stroke-width:1.5625;"/><line style="stroke:#446E9B;stroke-width:4.6875;" x1="950.2789" x2="950.2789" y1="3090.9561" y2="3122.2061"/><polygon fill="#446E9B" points="944.0289,3106.5811,950.2789,3122.2061,956.5289,3106.5811,950.2789,3112.8311" style="stroke:#446E9B;stroke-width:1.5625;"/><!--SRC=[ZLJjRY974FpFKtHEkjCYinpcphu4IuaiOiTEWa3cSlc9XjrUTkBTcTNCB9YS_4vvXZnPQcOMGoHBoHzZcFwehgwkRrp9DPDjHCQLMFVierIDCA8cMufSxwJQK24gooSlUIFf_6BKw-6haqvgHMyQepEsThMLEUjXitz3Ntj4rY42dvE5C9Pf-kiz2RDfQrREucUY94r3ne3Ij6Yi_mWvAoTh7eGG_5IBfrNU6k5RlM_OPCX_UJHQXhHQQrUk01Ye1yFXi7_b6yyRLXHQq3ioB78gfB6E2Wp2Fa8Mb3pCxycsJLD9pd_e4oXHbEpPzaEFoM-0ZlbybPmGwzFOKt9uDPGRiR7-3Rq4PTlnq7B5cJj4grmM7iwFREIMwJ0CLRAM3iZ2qEI7ndzr4w1F0TTnH6efbmRrjDaVG0kbj4D0JhF5nrTGtojK_k8d_zr81up2aKNj2XctY-KHrdEljojbnPJCjE4Z24ixwKhPWKG7QL_gJvRCZs7MwVLYjNYOuyzykPejRwO7VBSUTwHy_iih-AP6DxGMuDRJLXXT7vU2vrkTjP5HqBIkMcWqCnoMAUXk-OLgOHyf_HvuDwLZ5LT3PwIBmhBhgjmyEICoHrWkcxIMUOuvrqBbb8mltgQN5s-fP5-WJy9pl97Ehg2ec7wYRzEgbSvCqe_23iK_cptz_TUKXCfARR13B9Kt-wlktPDm7P_EW3OGgR1FtQfNL1OgpgSFP75o01bYayRMdmQ4zJYk96GxEXz_-7Xn-UdRxuQ3_g6Hro8bIfyKUc0h_sGQFq5RwrPMEIGdAfexsz9M62bmW5SduQsYppXV3cJvhfV7fg06VEd64u4QDyBkWVCaUvbvtQpr4sIQv9p96c6DaHgwsm_8YQgYJRLlIjotOc6eXJG7D4hFnwFZ4Ds9TF1TQx1guVT-HfbM1OIiClybz8bPpt79CyunKES0f60lHcPTSlA2-qCQv4NH8Rg-awN0EGBeHlgO604b_BpuYPAxktGsIvVBuH_DvX1_3I61ZIa4QFIElWQVYhq60USW5baLkAZdcFG_hjLRWn6xgC1Eo6il5E-_aTbttKHmQQuEh4t2RTEnUfp0wUXvCUn0xRzriiPfFfvwqtM-5PxY5mEWzPxEHwFHUpWprU0SePrJ-2B_RV_OOyN-meCDJKM3hJ86sGL32YONyNiwIpW5-rC1hs6_rkccz_mF]--></g></svg>